<?xml version="1.0" encoding="iso-8859-1"?>
<!-- Generator: Adobe Illustrator 19.0.0, SVG Export Plug-In . SVG Version: 6.00 Build 0)  -->
<svg xmlns="http://www.w3.org/2000/svg" xmlns:xlink="http://www.w3.org/1999/xlink" version="1.1" id="Capa_1" x="0px" y="0px" viewBox="0 0 63.799 63.799" style="enable-background:new 0 0 63.799 63.799;" xml:space="preserve" width="512px" height="512px">
<g id="Cup_1_">
	<path d="M26.525,56.425c-0.553,0-1,0.448-1,1c0,0.552,0.447,1,1,1h10.748c0.553,0,1-0.448,1-1c0-0.552-0.447-1-1-1H26.525z" fill="#FFFFFF"/>
	<path d="M56.707,10.003c-1.513-2.303-4.292-3.49-7.643-3.291l1.274-5.486c0.069-0.297-0.001-0.609-0.191-0.848   C49.958,0.139,49.669,0,49.364,0h-34.93c-0.305,0-0.594,0.139-0.783,0.378c-0.189,0.239-0.26,0.551-0.19,0.848l1.273,5.486   C11.381,6.513,8.605,7.7,7.092,10.003c-1.703,2.593-1.588,6.129,0.316,9.702c2.463,4.622,6.62,7.21,11.507,7.21   c0.167,0,0.337-0.011,0.505-0.018l2.773,11.945c0.104,0.453,0.509,0.774,0.974,0.774h2.358v11.434h-4.496   c-0.463,0-0.865,0.318-0.973,0.768l-2.564,10.748c-0.071,0.297-0.002,0.611,0.188,0.852c0.189,0.24,0.479,0.38,0.785,0.38h26.869   c0.308,0,0.598-0.141,0.787-0.383c0.189-0.242,0.257-0.557,0.184-0.855l-2.639-10.748c-0.109-0.447-0.51-0.762-0.971-0.762h-4.422   V39.617h2.358c0.465,0,0.869-0.321,0.974-0.774l2.773-11.945c0.168,0.006,0.339,0.018,0.505,0.018c4.887,0,9.044-2.589,11.507-7.21   C58.295,16.132,58.41,12.596,56.707,10.003z M9.174,18.765c-1.551-2.908-1.7-5.701-0.411-7.663c1.16-1.766,3.319-2.615,6.098-2.388   c0.115,0.011,0.224-0.009,0.331-0.036l3.769,16.235C14.773,24.93,11.311,22.775,9.174,18.765z M44.059,61.799H19.731l2.087-8.748   h4.707h10.748h4.638L44.059,61.799z M36.273,51.051h-8.748V39.617h8.748V51.051z M39.837,37.617h-2.564H26.525h-2.563L15.693,2   h32.412L39.837,37.617z M54.625,18.765c-2.136,4.012-5.595,6.17-9.786,6.149l3.769-16.236c0.106,0.028,0.216,0.048,0.33,0.036   c2.777-0.225,4.938,0.623,6.098,2.388C56.325,13.064,56.176,15.857,54.625,18.765z" fill="#FFFFFF"/>
	<path d="M40.506,12.129c-0.107-0.329-0.378-0.579-0.715-0.661l-4.706-1.139l-2.521-4.213c-0.361-0.604-1.355-0.603-1.717,0   l-2.52,4.213l-4.706,1.139c-0.337,0.082-0.607,0.332-0.715,0.661c-0.108,0.33-0.038,0.691,0.186,0.956l3.158,3.748l-0.393,4.928   c-0.027,0.349,0.129,0.687,0.412,0.891c0.285,0.204,0.655,0.245,0.977,0.109l4.46-1.896l4.462,1.896   c0.125,0.053,0.258,0.08,0.391,0.08c0.206,0,0.411-0.064,0.585-0.188c0.283-0.205,0.439-0.542,0.412-0.891l-0.393-4.928   l3.158-3.748C40.544,12.82,40.614,12.459,40.506,12.129z M35.368,15.859c-0.17,0.202-0.253,0.461-0.232,0.724l0.295,3.692   l-3.334-1.417c-0.124-0.053-0.258-0.08-0.391-0.08c-0.133,0-0.267,0.026-0.392,0.08l-3.332,1.417l0.295-3.692   c0.021-0.263-0.063-0.523-0.232-0.724l-2.381-2.826l3.542-0.857c0.261-0.064,0.485-0.229,0.623-0.459l1.877-3.139l1.878,3.139   c0.138,0.23,0.362,0.395,0.623,0.458l3.542,0.857L35.368,15.859z" fill="#FFFFFF"/>
</g>
<g>
</g>
<g>
</g>
<g>
</g>
<g>
</g>
<g>
</g>
<g>
</g>
<g>
</g>
<g>
</g>
<g>
</g>
<g>
</g>
<g>
</g>
<g>
</g>
<g>
</g>
<g>
</g>
<g>
</g>
</svg>
