<?xml version="1.0" encoding="iso-8859-1"?>
<!-- Generator: Adobe Illustrator 19.0.0, SVG Export Plug-In . SVG Version: 6.00 Build 0)  -->
<svg xmlns="http://www.w3.org/2000/svg" xmlns:xlink="http://www.w3.org/1999/xlink" version="1.1" id="Layer_1" x="0px" y="0px" viewBox="0 0 512.004 512.004" style="enable-background:new 0 0 512.004 512.004;" xml:space="preserve" width="512px" height="512px">
<g>
	<g>
		<g>
			<path d="M320.122,325.958c-3.959-0.324-24.832-2.185-34.731-3.063l-16.068-39.962c-2.475-6.17-7.612-10.001-13.397-10.001     c-6.11,0-11.315,4.258-13.099,10.325c-1.493,4.053-10.419,28.749-14.345,39.629l-37.069,3.14     c-5.734,0.486-10.274,4.113-11.836,9.455c-1.656,5.658,0.384,12.058,4.958,15.565c2.398,1.843,19.823,14.618,28.467,20.941     l-10.59,36.326c-2.27,6.699-0.648,11.034,1.109,13.483c4.045,5.641,13.355,6.187,20.045,1.544     c3.413-2.372,22.963-16.341,32.29-23.006c9.293,6.639,28.706,20.497,32.265,22.972c3.046,2.133,6.741,3.362,10.129,3.362     c4.002,0,7.612-1.698,9.89-4.659c1.826-2.364,3.635-6.588,1.886-13.261c-1.775-6.758-6.793-27.008-9.199-36.77l26.291-20.412     c4.753-3.695,6.835-10.334,5.052-16.119C330.49,329.961,325.805,326.325,320.122,325.958z M285.98,361.892     c-2.662,2.065-3.857,5.513-3.055,8.781c0,0,5.018,20.395,8.431,34.014c-10.906-7.748-30.532-21.786-30.532-21.786     c-1.476-1.067-3.226-1.596-4.966-1.596c-1.741,0-3.482,0.529-4.966,1.596c0,0-18.193,13.013-29.423,21.009l9.591-32.887     c1.007-3.447-0.256-7.151-3.149-9.276c-0.008,0-16.785-12.271-26.505-19.439l33.963-2.876c3.328-0.282,6.178-2.466,7.305-5.606     c0,0,8.781-24.303,13.594-37.606l15.241,37.896c1.203,2.978,3.968,5.035,7.159,5.316c0,0,20.574,1.835,32.538,2.884     L285.98,361.892z" fill="#FFFFFF"/>
			<path d="M256.002,204.802c-84.693,0-153.6,68.907-153.6,153.6s68.907,153.6,153.6,153.6s153.6-68.907,153.6-153.6     S340.695,204.802,256.002,204.802z M256.002,494.935c-75.281,0-136.533-61.252-136.533-136.533s61.252-136.533,136.533-136.533     s136.533,61.252,136.533,136.533S331.283,494.935,256.002,494.935z" fill="#FFFFFF"/>
			<path d="M271.661,189.143c1.664,1.664,3.849,2.5,6.033,2.5c2.185,0,4.369-0.836,6.033-2.5L427.991,44.879     c3.337-3.337,3.337-8.738,0-12.066c-3.328-3.337-8.73-3.337-12.066,0L271.661,177.077     C268.324,180.414,268.324,185.807,271.661,189.143z" fill="#FFFFFF"/>
			<path d="M509.502,53.702l-51.2-51.2c-1.596-1.604-3.763-2.5-6.033-2.5H59.735c-2.27,0-4.437,0.896-6.033,2.5l-51.2,51.2     c-3.336,3.337-3.336,8.73,0,12.066l149.069,149.069c3.328,3.328,8.73,3.328,12.066,0c3.328-3.337,3.328-8.738,0-12.066     L20.602,59.735l13.534-13.534l151.902,151.902c1.664,1.664,3.849,2.5,6.033,2.5c2.185,0,4.369-0.836,6.033-2.5     c3.328-3.336,3.328-8.738,0-12.066L46.202,34.135l17.067-17.067h385.468l17.067,17.067L313.969,185.969     c-3.336,3.337-3.336,8.73,0,12.066c1.664,1.664,3.849,2.5,6.033,2.5c2.185,0,4.369-0.836,6.033-2.5L477.869,46.202l13.534,13.534     L348.282,202.857c-3.328,3.336-3.328,8.73,0,12.066c1.673,1.664,3.857,2.5,6.033,2.5c2.185,0,4.369-0.836,6.042-2.5     L509.502,65.769C512.838,62.432,512.838,57.039,509.502,53.702z" fill="#FFFFFF"/>
			<path d="M341.336,68.269H170.669c-4.719,0-8.533,3.823-8.533,8.533s3.814,8.533,8.533,8.533h170.667     c4.719,0,8.533-3.823,8.533-8.533S346.054,68.269,341.336,68.269z" fill="#FFFFFF"/>
			<path d="M83.927,32.727c-3.337,3.337-3.337,8.73,0,12.066l144.444,144.444c1.664,1.664,3.849,2.5,6.033,2.5     c2.185,0,4.361-0.836,6.033-2.5c3.328-3.337,3.328-8.738,0-12.066L95.994,32.727C92.657,29.391,87.264,29.391,83.927,32.727z" fill="#FFFFFF"/>
		</g>
	</g>
</g>
<g>
</g>
<g>
</g>
<g>
</g>
<g>
</g>
<g>
</g>
<g>
</g>
<g>
</g>
<g>
</g>
<g>
</g>
<g>
</g>
<g>
</g>
<g>
</g>
<g>
</g>
<g>
</g>
<g>
</g>
</svg>
