<?xml version="1.0" standalone="no"?>
<!DOCTYPE svg PUBLIC "-//W3C//DTD SVG 20010904//EN"
 "http://www.w3.org/TR/2001/REC-SVG-20010904/DTD/svg10.dtd">
<svg version="1.0" xmlns="http://www.w3.org/2000/svg"
 width="512.000000pt" height="512.000000pt" viewBox="0 0 512.000000 512.000000"
 preserveAspectRatio="xMidYMid meet">
<metadata>
Created by potrace 1.11, written by Peter Selinger 2001-2013
</metadata>
<g transform="translate(0.000000,512.000000) scale(0.100000,-0.100000)"
fill="#000000" stroke="none">
<path d="M0 4350 l0 -770 170 0 170 0 0 -1365 0 -1365 85 0 85 0 0 1365 0
1365 2005 0 2005 0 2 -1362 3 -1363 83 -3 82 -3 0 1366 0 1365 215 0 215 0 0
770 0 770 -2560 0 -2560 0 0 -770z m430 582 c0 -23 38 -59 65 -63 42 -6 76 11
91 46 l14 35 85 0 c65 0 85 -3 85 -14 0 -22 38 -63 64 -68 37 -7 81 16 96 51
l12 31 253 0 253 0 12 -31 c15 -35 59 -58 96 -51 26 5 64 46 64 68 0 11 20 14
84 14 l84 0 12 -31 c15 -35 59 -58 96 -51 26 5 64 46 64 68 0 11 20 14 85 14
l85 0 14 -35 c15 -35 49 -52 91 -46 27 4 65 40 65 63 0 17 15 18 260 18 245 0
260 -1 260 -18 0 -23 38 -59 65 -63 42 -6 76 11 91 46 l14 35 85 0 c65 0 85
-3 85 -14 0 -22 38 -63 64 -68 37 -7 81 16 96 51 l12 31 84 0 c64 0 84 -3 84
-14 0 -22 38 -63 64 -68 37 -7 81 16 96 51 l12 31 253 0 253 0 12 -31 c15 -35
59 -58 96 -51 26 5 64 46 64 68 0 11 20 14 85 14 l85 0 14 -35 c15 -35 49 -52
91 -46 27 4 65 40 65 63 0 16 9 18 85 18 79 0 86 -2 94 -22 10 -26 37 -52 64
-61 14 -5 17 -19 17 -92 0 -76 -2 -85 -18 -85 -23 0 -59 -38 -63 -65 -6 -42
11 -76 46 -91 l35 -14 -2 -383 -3 -382 -377 -3 -377 -2 -16 33 c-16 35 -50 57
-86 57 -24 0 -79 -52 -79 -74 0 -13 -14 -16 -85 -16 -71 0 -85 3 -85 16 0 25
-56 74 -85 74 -29 0 -85 -49 -85 -74 0 -14 -45 -16 -424 -16 l-424 0 -19 37
c-33 69 -120 67 -149 -4 l-14 -33 -80 0 -80 0 -14 33 c-29 71 -116 73 -149 4
l-19 -37 -424 0 c-379 0 -424 2 -424 16 0 25 -56 74 -85 74 -29 0 -85 -49 -85
-74 0 -13 -14 -16 -85 -16 -71 0 -85 3 -85 16 0 22 -55 74 -79 74 -36 0 -70
-22 -86 -57 l-16 -33 -377 2 -377 3 -3 382 -2 383 35 14 c35 15 52 49 46 91
-4 27 -40 65 -63 65 -16 0 -18 9 -18 85 0 73 3 87 18 92 26 9 53 35 63 61 8
20 15 22 94 22 76 0 85 -2 85 -18z"/>
<path d="M282 4837 c-60 -63 6 -164 89 -135 34 12 63 64 52 95 -22 63 -99 85
-141 40z"/>
<path d="M625 4835 c-62 -62 2 -162 85 -133 42 14 65 60 51 100 -14 40 -38 57
-79 58 -22 0 -41 -8 -57 -25z"/>
<path d="M1652 4840 c-62 -58 -14 -153 73 -141 30 3 65 48 65 82 0 66 -89 104
-138 59z"/>
<path d="M1993 4838 c-30 -34 -34 -55 -19 -92 34 -81 156 -56 156 31 0 72 -91
112 -137 61z"/>
<path d="M3015 4835 c-46 -45 -26 -116 38 -138 31 -11 83 18 95 52 29 84 -71
149 -133 86z"/>
<path d="M3355 4835 c-32 -31 -32 -76 -2 -109 39 -44 106 -36 133 15 43 84
-65 161 -131 94z"/>
<path d="M4387 4846 c-9 -7 -22 -27 -28 -44 -14 -40 9 -86 51 -100 83 -29 147
71 85 133 -27 28 -79 33 -108 11z"/>
<path d="M4723 4838 c-30 -34 -34 -55 -19 -92 34 -83 156 -56 156 34 0 72 -90
109 -137 58z"/>
<path d="M455 4665 c-46 -45 -26 -116 38 -138 31 -11 83 18 95 52 29 84 -71
149 -133 86z"/>
<path d="M795 4665 c-43 -42 -26 -114 31 -136 35 -13 91 12 105 48 32 84 -73
152 -136 88z"/>
<path d="M1489 4677 c-66 -51 -35 -151 48 -151 72 0 109 89 58 139 -27 27 -79
33 -106 12z"/>
<path d="M1827 4676 c-9 -7 -22 -27 -28 -44 -14 -40 9 -86 51 -100 83 -29 147
71 85 133 -27 28 -79 33 -108 11z"/>
<path d="M2163 4668 c-30 -34 -34 -55 -19 -92 34 -81 156 -56 156 31 0 72 -91
112 -137 61z"/>
<path d="M2845 4665 c-46 -45 -26 -116 38 -138 31 -11 83 18 95 52 29 84 -71
149 -133 86z"/>
<path d="M3185 4665 c-62 -62 2 -162 85 -133 42 14 65 60 51 100 -14 40 -38
57 -79 58 -22 0 -41 -8 -57 -25z"/>
<path d="M3525 4665 c-32 -31 -32 -75 -1 -111 44 -52 126 -30 141 36 18 80
-82 134 -140 75z"/>
<path d="M4212 4670 c-47 -44 -36 -111 22 -135 85 -36 156 66 91 130 -30 31
-82 33 -113 5z"/>
<path d="M4553 4668 c-30 -34 -34 -55 -19 -92 34 -81 156 -56 156 31 0 72 -91
112 -137 61z"/>
<path d="M285 4495 c-17 -16 -25 -35 -25 -57 1 -41 18 -65 58 -79 40 -14 86 9
100 51 29 83 -71 147 -133 85z"/>
<path d="M625 4495 c-53 -52 -16 -139 60 -139 47 0 79 32 79 79 0 76 -87 113
-139 60z"/>
<path d="M1659 4507 c-65 -50 -35 -151 46 -151 76 0 113 87 60 139 -27 27 -79
33 -106 12z"/>
<path d="M1993 4498 c-29 -32 -34 -53 -21 -88 14 -42 60 -65 100 -51 40 14 57
38 58 79 0 70 -91 110 -137 60z"/>
<path d="M3015 4495 c-17 -16 -25 -35 -25 -57 1 -41 18 -65 58 -79 40 -14 86
9 100 51 29 83 -71 147 -133 85z"/>
<path d="M3355 4495 c-53 -52 -16 -139 60 -139 81 0 111 101 46 151 -27 21
-79 15 -106 -12z"/>
<path d="M4380 4495 c-31 -33 -32 -87 -2 -117 49 -50 142 -11 142 59 0 74 -90
111 -140 58z"/>
<path d="M4723 4498 c-29 -32 -34 -53 -21 -88 14 -42 60 -65 100 -51 40 14 57
38 58 79 0 70 -91 110 -137 60z"/>
<path d="M795 4325 c-53 -52 -16 -139 60 -139 47 0 79 32 79 79 0 76 -87 113
-139 60z"/>
<path d="M1136 4324 c-33 -33 -34 -74 -2 -110 62 -73 179 5 134 89 -28 54 -89
63 -132 21z"/>
<path d="M1489 4337 c-66 -51 -35 -151 48 -151 43 0 83 40 83 83 0 60 -85 104
-131 68z"/>
<path d="M2166 4328 c-44 -40 -36 -107 15 -134 84 -43 161 65 94 131 -31 32
-76 32 -109 3z"/>
<path d="M2506 4329 c-28 -22 -36 -72 -16 -108 16 -31 65 -46 100 -31 37 15
50 37 50 84 0 41 -37 76 -80 76 -15 0 -39 -9 -54 -21z"/>
<path d="M2845 4325 c-67 -66 10 -174 94 -131 51 27 59 94 15 134 -33 29 -78
29 -109 -3z"/>
<path d="M3526 4324 c-33 -33 -34 -74 -2 -110 44 -52 126 -30 141 36 18 81
-80 133 -139 74z"/>
<path d="M3879 4337 c-43 -33 -49 -84 -15 -123 48 -57 146 -20 146 55 0 60
-85 104 -131 68z"/>
<path d="M4210 4325 c-31 -33 -32 -87 -2 -117 49 -50 142 -11 142 59 0 74 -90
111 -140 58z"/>
<path d="M966 4154 c-35 -36 -34 -77 3 -115 18 -17 40 -29 56 -29 35 0 85 50
85 85 0 16 -12 38 -29 56 -38 37 -79 38 -115 3z"/>
<path d="M1319 4167 c-21 -16 -39 -51 -39 -77 0 -30 53 -80 85 -80 32 0 85 50
85 80 0 49 -38 89 -85 89 -16 0 -37 -5 -46 -12z"/>
<path d="M2335 4158 c-49 -42 -28 -129 34 -143 33 -7 85 15 95 40 33 88 -60
162 -129 103z"/>
<path d="M2675 4155 c-44 -43 -31 -112 25 -135 86 -35 156 83 82 140 -34 27
-77 25 -107 -5z"/>
<path d="M3709 4167 c-21 -16 -39 -51 -39 -77 0 -30 53 -80 85 -80 32 0 85 50
85 80 0 49 -38 89 -85 89 -16 0 -37 -5 -46 -12z"/>
<path d="M4039 4151 c-17 -18 -29 -40 -29 -56 0 -35 50 -85 85 -85 16 0 38 12
56 29 37 38 38 79 3 115 -36 35 -77 34 -115 -3z"/>
<path d="M796 3984 c-42 -43 -33 -104 21 -132 33 -18 59 -14 89 12 57 48 20
146 -55 146 -17 0 -39 -10 -55 -26z"/>
<path d="M1154 3998 c-24 -11 -44 -48 -44 -79 0 -30 53 -79 85 -79 35 0 85 50
85 85 0 34 -50 85 -82 84 -13 0 -33 -5 -44 -11z"/>
<path d="M1479 3981 c-17 -18 -29 -40 -29 -56 0 -32 50 -85 80 -85 49 0 89 38
89 85 0 34 -14 56 -46 73 -35 19 -63 14 -94 -17z"/>
<path d="M2165 3987 c-21 -17 -27 -32 -27 -62 0 -30 6 -45 27 -62 14 -13 35
-23 46 -23 28 0 75 26 83 45 34 89 -60 162 -129 102z"/>
<path d="M2505 3985 c-52 -51 -16 -145 55 -145 44 0 80 39 80 85 0 46 -36 85
-80 85 -19 0 -40 -9 -55 -25z"/>
<path d="M2845 3985 c-41 -40 -33 -105 16 -130 39 -21 64 -19 94 8 21 17 27
32 27 62 0 75 -85 113 -137 60z"/>
<path d="M3545 3998 c-31 -18 -44 -40 -44 -73 0 -47 40 -85 89 -85 30 0 80 53
80 85 0 33 -50 85 -82 85 -13 0 -32 -6 -43 -12z"/>
<path d="M3869 3981 c-17 -18 -29 -40 -29 -56 0 -35 50 -85 85 -85 32 0 85 49
85 79 0 33 -20 68 -47 80 -39 18 -63 13 -94 -18z"/>
<path d="M4214 3986 c-73 -62 5 -179 89 -134 54 28 63 89 21 132 -33 33 -74
34 -110 2z"/>
<path d="M1542 2848 c-586 -1561 -1062 -2833 -1062 -2840 0 -4 448 -8 995 -8
l995 0 0 43 c0 55 28 109 63 121 62 22 117 -34 117 -121 l0 -43 995 0 c547 0
995 4 995 8 0 7 -476 1279 -1062 2840 l-19 52 -455 0 -454 0 0 -32 c0 -66 -19
-108 -56 -125 -31 -16 -37 -16 -68 0 -37 17 -56 59 -56 125 l0 32 -454 0 -455
0 -19 -52z m1079 -234 c22 -24 24 -33 24 -139 0 -106 -2 -115 -24 -139 -18
-19 -35 -26 -61 -26 -26 0 -43 7 -61 26 -22 24 -24 33 -24 139 0 106 2 115 24
139 18 19 35 26 61 26 26 0 43 -7 61 -26z m-21 -409 c39 -20 53 -75 48 -189
-4 -82 -6 -91 -32 -112 -15 -13 -40 -24 -56 -24 -16 0 -41 11 -56 24 -26 21
-28 30 -32 112 -5 111 9 168 46 188 35 19 46 19 82 1z m16 -439 c26 -21 28
-30 32 -112 6 -120 -8 -170 -53 -191 -33 -16 -37 -16 -70 0 -45 21 -59 71 -53
191 4 82 6 91 32 112 15 13 40 24 56 24 16 0 41 -11 56 -24z m-1 -510 c32 -32
38 -72 33 -218 -4 -134 -13 -161 -60 -177 -35 -13 -78 2 -98 32 -16 25 -27
241 -15 304 8 47 46 83 85 83 19 0 40 -9 55 -24z m2 -600 l28 -24 0 -160 c0
-156 -1 -161 -24 -186 -34 -36 -88 -36 -122 0 -23 25 -24 30 -24 186 l0 160
28 24 c16 13 41 24 57 24 16 0 41 -11 57 -24z"/>
</g>
</svg>
